PathFileType	4	(X/Y/Z)	/Users/itak/Documents/Research/Walk-IL/dataset/trc/00485_00167.trc
DataRate	CameraRate	NumFrames	NumMarkers	Units	OrigDataRate	OrigDataStartFrame	OrigNumFrames
100.000000	100.000000	4	53	mm	100.000000	0	566
Frame#	Time	RPSI			LPSI			L3			STRN			T10			C7			CLAV			RBAK			LBAK			LSHO			LUPA			LAEL			LAOL			LWTS			LWPS			LFRA			LIFD			LHPS			RSHO			RUPA			RAEL			RAOL			RWTS			RWPS			RFRA			RIFD			RHTS			RHPS			RBHD			LFHD			RFHD			LBHD			LHIP			RHIP			RASI			LASI			LKNE			LTHI			LANK			LTIP			LTOE			LMT1			LMT5			LHEE			RKNE			RTHI			RANK			RTIP			RTOE			RMT1			RMT5			RHEE			LHTS			
		X1	Y1	Z1	X2	Y2	Z2	X3	Y3	Z3	X4	Y4	Z4	X5	Y5	Z5	X6	Y6	Z6	X7	Y7	Z7	X8	Y8	Z8	X9	Y9	Z9	X10	Y10	Z10	X11	Y11	Z11	X12	Y12	Z12	X13	Y13	Z13	X14	Y14	Z14	X15	Y15	Z15	X16	Y16	Z16	X17	Y17	Z17	X18	Y18	Z18	X19	Y19	Z19	X20	Y20	Z20	X21	Y21	Z21	X22	Y22	Z22	X23	Y23	Z23	X24	Y24	Z24	X25	Y25	Z25	X26	Y26	Z26	X27	Y27	Z27	X28	Y28	Z28	X29	Y29	Z29	X30	Y30	Z30	X31	Y31	Z31	X32	Y32	Z32	X33	Y33	Z33	X34	Y34	Z34	X35	Y35	Z35	X36	Y36	Z36	X37	Y37	Z37	X38	Y38	Z38	X39	Y39	Z39	X40	Y40	Z40	X41	Y41	Z41	X42	Y42	Z42	X43	Y43	Z43	X44	Y44	Z44	X45	Y45	Z45	X46	Y46	Z46	X47	Y47	Z47	X48	Y48	Z48	X49	Y49	Z49	X50	Y50	Z50	X51	Y51	Z51	X52	Y52	Z52	X53	Y53	Z53	

1	0	-1447.650268554688	965.9339599609375	-234.7836761474609	-1364.0673828125	962.1484985351562	-348.9087219238281	-1405.2275390625	1053.643310546875	-275.666259765625	-1184.236206054688	1259.205200195312	-140.7340393066406	-1424.028198242188	1177.366088867188	-294.0280456542969	-1383.468994140625	1448.47021484375	-252.8293151855469	-1216.091552734375	1370.491577148438	-165.3131408691406	-1483.40478515625	1326.853759765625	-201.3525390625	-1354.309692382812	1399.793579101562	-354.7673950195312	-1224.886596679688	1424.386352539062	-365.903564453125	-1170.855102539062	1305.00341796875	-448.8431091308594	-1126.494750976562	1087.19921875	-452.0521240234375	-1229.412231445312	1071.285522460938	-451.2021179199219	-1090.621704101562	888.3743286132812	-357.6402587890625	-1087.889282226562	871.990234375	-430.2712097167969	-1102.29833984375	1000.563720703125	-442.5157775878906	-1080.301879882812	725.0639038085938	-358.5347290039062	-1077.202758789062	795.2994995117188	-423.0864562988281	-1406.140991210938	1419.8037109375	-78.59143829345703	-1457.066528320312	1358.562377929688	-19.1559944152832	-1462.609252929688	1070.689819335938	42.0054931640625	-1487.296264648438	1050.310913085938	-18.10506820678711	-1337.02490234375	873.4487915039062	56.10433197021484	-1421.324096679688	854.29150390625	77.20528411865234	-1459.896728515625	1012.576171875	54.27574157714844	-1328.434814453125	717.29736328125	71.683837890625	-1322.482788085938	777.3943481445312	77.326904296875	-1399.376953125	768.031005859375	85.08373260498047	-1364.616455078125	1646.393676757812	-136.1294708251953	-1176.368896484375	1674.232788085938	-217.8113555908203	-1235.300048828125	1674.292114257812	-100.4677352905273	-1301.119262695312	1648.990600585938	-302.5571594238281	-1186.68896484375	862.970947265625	-369.7283325195312	-1435.06103515625	861.8604125976562	-57.40071487426758	-1309.390014648438	901.6139526367188	-42.88390350341797	-1151.192626953125	897.8052978515625	-247.84423828125	-1215.861572265625	445.3777160644531	-356.6514282226562	-1177.533447265625	595.4080810546875	-352.5448913574219	-1281.773315429688	42.76141357421875	-402.9181518554688	-1217.243286132812	301.0739440917969	-377.2857666015625	-1126.718017578125	45.05641937255859	-214.8013458251953	-1207.3525390625	49.94768905639648	-234.0704498291016	-1145.333618164062	48.21677398681641	-328.9363403320312	-1354.75048828125	48.00911712646484	-372.4873962402344	-1413.0810546875	468.4360046386719	-75.62375640869141	-1406.64306640625	727.3397216796875	-26.57769966125488	-1467.208618164062	39.73119735717773	-108.9947509765625	-1423.218017578125	328.0013732910156	-69.93439483642578	-1257.82763671875	47.67319488525391	-31.48951721191406	-1293.762451171875	56.12001419067383	-94.13581848144531	-1369.4140625	47.02211380004883	-15.37674140930176	-1494.540405273438	33.32416152954102	-183.7487335205078	-1070.137329101562	803.096435546875	-350.8481750488281	
2	0.01	-1447.6279296875	965.9465942382812	-234.7410278320312	-1364.004760742188	962.161376953125	-348.8573913574219	-1405.192138671875	1053.62060546875	-275.6151428222656	-1184.215209960938	1259.185913085938	-140.7346496582031	-1423.988037109375	1177.350463867188	-293.9873046875	-1383.407592773438	1448.453369140625	-252.8456878662109	-1216.065795898438	1370.463745117188	-165.3279724121094	-1483.358276367188	1326.857788085938	-201.3809814453125	-1354.280517578125	1399.7666015625	-354.7898254394531	-1224.849243164062	1424.328247070312	-365.9240417480469	-1170.821044921875	1304.90478515625	-448.8086547851562	-1126.557861328125	1087.072509765625	-451.9998779296875	-1229.536254882812	1071.223022460938	-451.1220092773438	-1090.76416015625	888.2080078125	-357.569580078125	-1087.969360351562	871.8759155273438	-430.1824645996094	-1102.3818359375	1000.445434570312	-442.4165649414062	-1080.542114257812	724.9176635742188	-358.4643859863281	-1077.344848632812	795.1828002929688	-422.9796447753906	-1406.108032226562	1419.794799804688	-78.59552764892578	-1457.041625976562	1358.554077148438	-19.16861534118652	-1462.626220703125	1070.690551757812	41.99580764770508	-1487.318969726562	1050.321533203125	-18.11785316467285	-1337.10595703125	873.4071655273438	56.08810806274414	-1421.399291992188	854.2800903320312	77.18902587890625	-1459.936401367188	1012.578369140625	54.26261520385742	-1328.57177734375	717.26708984375	71.65261840820312	-1322.58056640625	777.369384765625	77.30496978759766	-1399.47705078125	768.013671875	85.04328918457031	-1364.55908203125	1646.409912109375	-136.1191864013672	-1176.253662109375	1674.167846679688	-217.8777923583984	-1235.127197265625	1674.243041992188	-100.4952011108398	-1301.059814453125	1648.988403320312	-302.5636291503906	-1186.661254882812	862.9631958007812	-369.6900634765625	-1435.030883789062	861.8621826171875	-57.36164093017578	-1309.375366210938	901.608154296875	-42.84624099731445	-1151.157836914062	897.786376953125	-247.7878875732422	-1215.8603515625	445.369384765625	-356.6364440917969	-1177.529907226562	595.3983764648438	-352.5242919921875	-1281.782348632812	42.76138305664062	-402.91259765625	-1217.244018554688	301.078125	-377.2477722167969	-1126.711669921875	45.05598068237305	-214.8026885986328	-1207.350463867188	49.94029235839844	-234.0620574951172	-1145.339965820312	48.20895385742188	-328.9305114746094	-1354.71728515625	47.98331451416016	-372.462158203125	-1413.074584960938	468.4353942871094	-75.61488342285156	-1406.623046875	727.3369750976562	-26.54872512817383	-1467.205688476562	39.73745346069336	-108.998779296875	-1423.21875	328.0041198730469	-69.92465209960938	-1257.826171875	47.67236328125	-31.49242401123047	-1293.759643554688	56.11960220336914	-94.13557434082031	-1369.41455078125	47.02223968505859	-15.37823963165283	-1494.541748046875	33.32899475097656	-183.7500762939453	-1070.250610351562	802.9086303710938	-350.80126953125	
3	0.02	-1447.595092773438	965.9619140625	-234.6837310791016	-1363.931884765625	962.177490234375	-348.7926025390625	-1405.144897460938	1053.5966796875	-275.5559997558594	-1184.186279296875	1259.1611328125	-140.7359161376953	-1423.938720703125	1177.3310546875	-293.9385986328125	-1383.333984375	1448.43798828125	-252.8624877929688	-1216.031982421875	1370.428955078125	-165.3477325439453	-1483.294677734375	1326.863525390625	-201.4173431396484	-1354.252075195312	1399.726318359375	-354.8145446777344	-1224.798217773438	1424.255249023438	-365.9508056640625	-1170.78125	1304.785400390625	-448.7705993652344	-1126.632446289062	1086.92138671875	-451.9348449707031	-1229.683349609375	1071.1484375	-451.0259704589844	-1090.942138671875	888.0142211914062	-357.4643249511719	-1088.078857421875	871.7364501953125	-430.0625610351562	-1102.4853515625	1000.300109863281	-442.2938232421875	-1080.811279296875	724.759521484375	-358.3710021972656	-1077.526123046875	795.03369140625	-422.8420715332031	-1406.0634765625	1419.78369140625	-78.60041046142578	-1457.005493164062	1358.544189453125	-19.1827507019043	-1462.647827148438	1070.690185546875	41.97638320922852	-1487.345825195312	1050.333984375	-18.13778495788574	-1337.20654296875	873.3504638671875	56.06174087524414	-1421.495239257812	854.2630004882812	77.16065216064453	-1459.985717773438	1012.579467773438	54.24291610717773	-1328.74169921875	717.2255859375	71.60830688476562	-1322.710083007812	777.3355712890625	77.27468109130859	-1399.60400390625	767.9877319335938	84.9884033203125	-1364.476440429688	1646.437255859375	-136.1077423095703	-1176.103393554688	1674.087158203125	-217.9593200683594	-1234.89697265625	1674.18115234375	-100.5287094116211	-1300.975830078125	1648.997680664062	-302.5765686035156	-1186.62548828125	862.9503173828125	-369.6392211914062	-1434.990844726562	861.8633422851562	-57.31560516357422	-1309.361938476562	901.5997314453125	-42.79968643188477	-1151.111694335938	897.7646484375	-247.7194976806641	-1215.85986328125	445.3585815429688	-356.6173706054688	-1177.530151367188	595.3833618164062	-352.4985961914062	-1281.792602539062	42.76077270507812	-402.9064636230469	-1217.246215820312	301.074951171875	-377.2235717773438	-1126.705322265625	45.05544662475586	-214.8042297363281	-1207.351806640625	49.92979049682617	-234.0516052246094	-1145.345947265625	48.20310974121094	-328.9306030273438	-1354.683227539062	47.9549560546875	-372.43505859375	-1413.068115234375	468.433837890625	-75.60088348388672	-1406.5986328125	727.333984375	-26.50939750671387	-1467.202880859375	39.74427795410156	-109.0044097900391	-1423.219116210938	328.0075378417969	-69.9111328125	-1257.82470703125	47.6714973449707	-31.49525260925293	-1293.757934570312	56.11945724487305	-94.13528442382812	-1369.415283203125	47.02249145507812	-15.37968730926514	-1494.543212890625	33.33414077758789	-183.7515716552734	-1070.407836914062	802.683837890625	-350.725341796875	
4	0.03	-1447.5517578125	965.9795532226562	-234.6139373779297	-1363.854248046875	962.1943969726562	-348.7171630859375	-1405.087280273438	1053.573974609375	-275.492919921875	-1184.149169921875	1259.131958007812	-140.7382202148438	-1423.882202148438	1177.30859375	-293.884765625	-1383.252075195312	1448.42626953125	-252.8779754638672	-1215.990478515625	1370.388549804688	-165.3724975585938	-1483.215454101562	1326.870849609375	-201.4590759277344	-1354.226684570312	1399.672973632812	-354.8376159667969	-1224.734619140625	1424.170776367188	-365.9831237792969	-1170.739868164062	1304.652221679688	-448.733642578125	-1126.71484375	1086.755493164062	-451.8601379394531	-1229.843139648438	1071.066162109375	-450.9199523925781	-1091.148803710938	887.8067626953125	-357.3216857910156	-1088.218627929688	871.5792236328125	-429.9129333496094	-1102.60546875	1000.135498046875	-442.1540222167969	-1081.088134765625	724.6047973632812	-358.2498474121094	-1077.73779296875	794.857177734375	-422.6778259277344	-1406.007568359375	1419.7705078125	-78.6055908203125	-1456.957275390625	1358.533325195312	-19.19738578796387	-1462.672729492188	1070.688110351562	41.94480133056641	-1487.375122070312	1050.347290039062	-18.16588592529297	-1337.321899414062	873.2793579101562	56.02354049682617	-1421.6083984375	854.2395629882812	77.11676025390625	-1460.042358398438	1012.578552246094	54.21587753295898	-1328.938354492188	717.172607421875	71.55135345458984	-1322.868408203125	777.2921142578125	77.23568725585938	-1399.75341796875	767.9523315429688	84.91875457763672	-1364.3662109375	1646.47802734375	-136.0968017578125	-1175.923217773438	1673.9951171875	-218.050537109375	-1234.611694335938	1674.109375	-100.5669631958008	-1300.86669921875	1649.022216796875	-302.5966491699219	-1186.581665039062	862.9305419921875	-369.5757751464844	-1434.94189453125	861.8636474609375	-57.26515960693359	-1309.352416992188	901.5880126953125	-42.74601364135742	-1151.055541992188	897.74169921875	-247.6431427001953	-1215.859741210938	445.3458862304688	-356.59521484375	-1177.536499023438	595.362548828125	-352.4696655273438	-1281.802612304688	42.75982666015625	-402.900146484375	-1217.250366210938	301.0654602050781	-377.2159118652344	-1126.698974609375	45.05485534667969	-214.8057708740234	-1207.357055664062	49.91646957397461	-234.0395660400391	-1145.350708007812	48.20003128051758	-328.935791015625	-1354.65234375	47.92769622802734	-372.40966796875	-1413.0634765625	468.431396484375	-75.58016967773438	-1406.570068359375	727.3308715820312	-26.46125793457031	-1467.20068359375	39.75083923339844	-109.0110626220703	-1423.21875	328.0115966796875	-69.89421844482422	-1257.823120117188	47.67046737670898	-31.49814224243164	-1293.757690429688	56.11967468261719	-94.13480377197266	-1369.416259765625	47.02291488647461	-15.38094329833984	-1494.54443359375	33.33933639526367	-183.7530364990234	-1070.604736328125	802.4402465820312	-350.616455078125	
